<?xml version="1.0" encoding="UTF-8"?>
<svg id="Layer_2" data-name="Layer 2" xmlns="http://www.w3.org/2000/svg" viewBox="0 0 120.92 121.39">
  <defs>
    <style>
      .cls-1 {
        fill: #e6b041;
      }

      .cls-1, .cls-2, .cls-3 {
        stroke-width: 0px;
      }

      .cls-2 {
        fill: #c3007a;
      }

      .cls-3 {
        fill: #fff;
      }

      .cls-4 {
        fill: none;
        stroke: #3e3e3d;
        stroke-miterlimit: 10;
        stroke-width: 2.86px;
      }
    </style>
  </defs>
  <g id="OBJECTS">
    <g>
      <g>
        <path class="cls-1" d="m103.31,99.32c-3.66-11.14-9.14-21.15-16.32-29.8-13.92-16.76-33.98-26.38-55.03-26.38-.41,0-.83,0-1.24.01-6.71.12-13.54,1.16-20.31,3.08-2.14.61-4.19,1.36-6.23,2.17C9.86,21.86,33.13,2.86,60.45,2.86c31.76,0,57.6,25.94,57.6,57.83,0,14.37-5.22,27.99-14.75,38.63Z"/>
        <path class="cls-3" d="m60.45,4.29c30.97,0,56.17,25.3,56.17,56.4,0,13.18-4.5,25.72-12.77,35.79-3.69-10.36-8.98-19.72-15.76-27.88-14.19-17.09-34.65-26.89-56.13-26.89-.42,0-.85,0-1.27.01-6.83.13-13.79,1.18-20.68,3.13-1.3.37-2.57.79-3.81,1.24,2.93-10.97,9.14-20.89,17.84-28.34,10.14-8.68,23.07-13.47,36.42-13.47m0-2.86C31.23,1.43,6.98,22.75,2.26,50.73c2.8-1.16,5.61-2.29,8.53-3.12,6.46-1.83,13.23-2.9,19.95-3.03.41,0,.81-.01,1.22-.01,20.85,0,40.61,9.82,53.93,25.86,7.76,9.35,13.33,20.16,16.79,31.65,10.39-10.68,16.81-25.28,16.81-41.4C119.49,27.96,93.06,1.43,60.45,1.43h0Z"/>
        <path class="cls-4" d="m10.79,47.61c6.46-1.83,13.23-2.9,19.95-3.03,21.3-.39,41.57,9.5,55.15,25.85,7.76,9.34,13.33,20.16,16.79,31.65,10.39-10.68,16.81-25.28,16.81-41.4C119.49,27.96,93.06,1.43,60.45,1.43,31.23,1.43,6.98,22.75,2.26,50.73c2.8-1.16,5.61-2.29,8.53-3.12Z"/>
      </g>
      <g>
        <path class="cls-2" d="m60.45,118.52c-15.11,0-29.38-5.83-40.19-16.42C9.7,91.77,3.56,78.01,2.92,63.26c.38-.16.76-.32,1.14-.48,1.93-.81,3.92-1.65,5.92-2.36,5.04-1.8,10.38-3.02,15.42-3.52,2.09-.21,4.2-.31,6.26-.31,7.3,0,14.35,1.29,20.96,3.84,15.82,6.1,29.44,20.52,36.45,38.56,1.24,3.19,2.3,6.53,3.16,9.93-9.44,6.29-20.41,9.61-31.79,9.61Z"/>
        <path class="cls-3" d="m31.66,58.02c7.12,0,14,1.26,20.45,3.75,15.45,5.96,28.77,20.07,35.63,37.74,1.1,2.83,2.06,5.77,2.85,8.78-9.01,5.77-19.39,8.81-30.14,8.81-14.73,0-28.65-5.69-39.19-16.01-10.06-9.85-16-22.89-16.85-36.89.07-.03.14-.06.21-.09,1.91-.8,3.88-1.63,5.84-2.33,4.93-1.76,10.15-2.96,15.08-3.44,2.04-.2,4.1-.31,6.12-.31m0-2.86c-2.13,0-4.27.11-6.4.32-5.33.53-10.72,1.8-15.76,3.6-2.74.98-5.38,2.15-8.04,3.25.86,31.97,26.93,57.63,58.99,57.63,12.41,0,23.91-3.85,33.41-10.41-.9-3.75-2.05-7.45-3.46-11.08-6.67-17.17-19.86-32.66-37.27-39.38-6.91-2.67-14.15-3.94-21.48-3.94h0Z"/>
        <path class="cls-4" d="m90.41,98.47c-6.67-17.17-19.86-32.66-37.27-39.38-8.92-3.44-18.39-4.56-27.88-3.62-5.33.53-10.72,1.8-15.76,3.6-2.74.98-5.38,2.15-8.04,3.25.86,31.97,26.93,57.63,58.99,57.63,12.41,0,23.91-3.85,33.41-10.41-.9-3.75-2.05-7.45-3.46-11.08Z"/>
      </g>
    </g>
  </g>
</svg>