<?xml version="1.0" encoding="UTF-8"?>
<svg id="Layer_2" data-name="Layer 2" xmlns="http://www.w3.org/2000/svg" viewBox="0 0 114.5 101.55">
  <defs>
    <style>
      .cls-1 {
        fill: none;
        stroke: #3e3e3d;
        stroke-linecap: round;
        stroke-linejoin: round;
        stroke-width: 2.86px;
      }

      .cls-2 {
        fill: #fff;
      }

      .cls-2, .cls-3 {
        stroke-width: 0px;
      }

      .cls-3 {
        fill: #c30050;
      }
    </style>
  </defs>
  <g id="OBJECTS">
    <g>
      <g>
        <path class="cls-3" d="m13.25,98.69c-3.4,0-6.48-1.83-8.45-5.03-2.4-3.89-2.59-8.86-.52-12.97L40.54,8.82c1.85-3.67,5.29-5.96,8.97-5.96h43.2c3.4,0,6.48,1.83,8.45,5.03,2.4,3.89,2.59,8.86.52,12.97l-36.25,71.87c-1.85,3.67-5.29,5.96-8.97,5.96H13.25Z"/>
        <path class="cls-2" d="m92.7,4.29c2.89,0,5.53,1.58,7.23,4.34,2.14,3.47,2.31,7.91.46,11.58l-36.25,71.87c-1.61,3.19-4.55,5.17-7.69,5.17H13.25c-2.89,0-5.53-1.58-7.23-4.34-2.14-3.47-2.31-7.91-.46-11.58L41.82,9.46c1.61-3.19,4.55-5.17,7.69-5.17h43.2m0-2.86h-43.2c-4.23,0-8.14,2.57-10.24,6.74L3.01,80.04c-4.51,8.94,1.17,20.07,10.24,20.07h43.2c4.23,0,8.14-2.57,10.24-6.74L102.95,21.51c4.51-8.94-1.17-20.07-10.24-20.07h0Z"/>
        <path class="cls-1" d="m56.45,100.12H13.25c-9.07,0-14.75-11.13-10.24-20.07L39.26,8.17c2.1-4.17,6.01-6.74,10.24-6.74h43.2c9.07,0,14.75,11.13,10.24,20.07l-36.25,71.87c-2.1,4.17-6.01,6.74-10.24,6.74Z"/>
      </g>
      <g>
        <path class="cls-3" d="m101.27,98.69c-3.39,0-6.46-1.82-8.43-5-2.4-3.87-2.61-8.83-.57-12.94,1.91-3.84,5.14-6.04,8.86-6.04,5.1,0,10.51,4.21,10.51,12,0,6.6-4.65,11.98-10.38,11.98Z"/>
        <path class="cls-2" d="m101.13,76.14h0c4.4,0,9.08,3.7,9.08,10.57,0,5.82-4.01,10.55-8.94,10.55-2.88,0-5.51-1.57-7.21-4.32-2.14-3.45-2.33-7.88-.5-11.55,1.68-3.38,4.37-5.24,7.58-5.24m0-2.86c-3.88,0-7.79,2.12-10.14,6.83-4.45,8.94,1.23,20.01,10.28,20.01,6.52,0,11.81-6,11.81-13.41h0c0-8.37-5.94-13.43-11.94-13.43h0Z"/>
        <path class="cls-1" d="m90.99,80.11h0c5.97-12,22.08-7.18,22.08,6.6h0c0,7.41-5.29,13.41-11.81,13.41h0c-9.04,0-14.73-11.07-10.28-20.01Z"/>
      </g>
    </g>
  </g>
</svg>