<?xml version="1.0" encoding="UTF-8"?>
<svg id="Layer_2" data-name="Layer 2" xmlns="http://www.w3.org/2000/svg" xmlns:xlink="http://www.w3.org/1999/xlink" viewBox="0 0 66.36 123.32">
  <defs>
    <style>
      .cls-1 {
        fill: url(#Degradado_sin_nombre_58);
      }

      .cls-1, .cls-2, .cls-3 {
        stroke-width: 0px;
      }

      .cls-2 {
        fill: #fff;
      }

      .cls-4 {
        fill: none;
        stroke: #3e3e3d;
        stroke-miterlimit: 10;
        stroke-width: 2.86px;
      }

      .cls-3 {
        fill: #858585;
      }
    </style>
    <linearGradient id="Degradado_sin_nombre_58" data-name="Degradado sin nombre 58" x1="33.18" y1="28.43" x2="33.18" y2="119.84" gradientUnits="userSpaceOnUse">
      <stop offset="0" stop-color="#67a96a"/>
      <stop offset="1" stop-color="#3f813d"/>
    </linearGradient>
  </defs>
  <g id="OBJECTS">
    <g>
      <g>
        <path class="cls-1" d="m32.44,119.84c1.81-1.34,3.62-2.69,5.43-4.03,4.01-2.99,8.16-6.08,12.29-9.05l1.5-1.08c3.88-2.8,7.88-5.67,11.82-8.56v22.72h-31.05ZM2.86,84.85c11.34-10.09,24.11-18.92,36.47-27.46,3.57-2.46,7.13-4.93,10.67-7.43,4.42-3.12,8.95-6.38,13.49-9.73v32.7c-7.62,5.88-15.57,11.6-23.26,17.15l-2.27,1.64c-3.32,2.4-6.68,4.91-9.93,7.35-3.78,2.83-7.69,5.76-11.52,8.48-1.49,1.06-3.01,2.1-4.52,3.15-3.04,2.1-6.16,4.25-9.13,6.56v-32.4Zm0-56.42h44.01c-3.07,2.22-6.1,4.38-9.05,6.44-3.15,2.2-6.31,4.39-9.48,6.58-8.46,5.84-17.18,11.87-25.49,18.23v-31.25Z"/>
        <path class="cls-2" d="m42.43,29.86c-1.83,1.31-3.64,2.59-5.43,3.84-3.14,2.2-6.36,4.42-9.47,6.57-7.7,5.32-15.61,10.78-23.24,16.53v-26.94h38.13m19.63,13.2v29.17c-7.43,5.71-15.16,11.29-22.65,16.69l-2.28,1.64c-3.33,2.41-6.7,4.92-9.95,7.36-3.78,2.83-7.68,5.75-11.49,8.46-1.48,1.05-3.02,2.11-4.5,3.14-2.28,1.57-4.61,3.18-6.89,4.86v-28.88c11.16-9.86,23.7-18.53,35.85-26.93,3.51-2.43,7.14-4.93,10.69-7.44,3.69-2.6,7.45-5.31,11.24-8.07m0,56.87v18.48h-25.29c.66-.49,1.31-.98,1.97-1.46,4.01-2.98,8.15-6.06,12.26-9.03l1.55-1.11c3.13-2.25,6.33-4.56,9.51-6.87m-10.79-72.94H1.43v35.6c11.97-9.37,24.74-17.82,37.21-26.56,4.24-2.97,8.45-5.99,12.62-9.05h0Zm13.66,10.41c-5.2,3.85-10.45,7.65-15.75,11.39-16.22,11.45-33,22.21-47.75,35.42v36.04c5-4.19,10.59-7.75,15.92-11.54,7.12-5.06,14.26-10.64,21.46-15.83,8.78-6.33,17.58-12.63,26.12-19.24v-36.23h0Zm0,56.9c-5.17,3.8-10.39,7.55-15.59,11.3-7.15,5.15-14.14,10.48-21.25,15.68h36.84v-26.98h0Z"/>
        <path class="cls-4" d="m1.43,62.6V27h49.84c-4.18,3.06-8.38,6.07-12.62,9.05C26.17,44.78,13.4,53.23,1.43,62.6Zm15.92,46.11c7.12-5.06,14.26-10.64,21.46-15.83,8.78-6.33,17.58-12.63,26.12-19.24v-36.23c-5.2,3.85-10.45,7.65-15.75,11.39-16.22,11.45-33,22.21-47.75,35.42v36.04c5-4.19,10.59-7.75,15.92-11.54Zm31.98-3.11c-7.15,5.15-14.14,10.48-21.25,15.68h36.84v-26.98c-5.17,3.8-10.39,7.55-15.59,11.3Z"/>
      </g>
      <g>
        <rect class="cls-3" x="21.2" y="2.86" width="23.97" height="12.78"/>
        <path class="cls-2" d="m43.73,4.29v9.92h-21.1V4.29h21.1m2.86-2.86h-26.83v15.64h26.83V1.43h0Z"/>
        <rect class="cls-4" x="19.76" y="1.43" width="26.83" height="15.64"/>
      </g>
    </g>
  </g>
</svg>