<?xml version="1.0" encoding="UTF-8"?>
<svg id="Layer_2" data-name="Layer 2" xmlns="http://www.w3.org/2000/svg" viewBox="0 0 148.66 113.52">
  <defs>
    <style>
      .cls-1 {
        fill: none;
        stroke: #1a1a1a;
        stroke-linecap: round;
        stroke-linejoin: round;
        stroke-width: 2.86px;
      }

      .cls-2 {
        fill: #f1cb45;
      }

      .cls-2, .cls-3 {
        stroke-width: 0px;
      }

      .cls-3 {
        fill: #fff;
      }
    </style>
  </defs>
  <g id="OBJECTS">
    <g>
      <path class="cls-2" d="m32.33,78.05c-.3-1.95-1.19-3.71-2.49-4.94-1.13-1.07-2.36-1.61-3.65-1.61-2.3,0-4.54,1.64-7.05,5.15-1.39,1.95-3.27,2.98-5.43,2.98-4.33,0-9.48-4.35-10.61-11.62-.66-4.28.05-7.9,2.01-10.19,1.26-1.47,2.92-2.25,4.79-2.25,1.46,0,3,.49,4.46,1.42,2.38,1.51,4.53,2.28,6.39,2.27,3.07,0,5.36-2.03,6.45-5.71.58-1.94.69-4.06.35-6.3l-4.67-30.08,28.46-4.41c.54-.08,1.08-.13,1.59-.13.88,0,1.71.12,2.48.37,1.69.54,2.75,1.41,3.15,2.58.62,1.8-.2,4.44-2.37,7.65-2.5,3.69-3.09,6.86-1.74,9.4,1.65,3.11,6.16,4.82,12.69,4.82,2.18,0,4.5-.19,6.9-.56,7.48-1.16,13.13-5.53,14.07-10.88.65-3.71-1.19-7.06-5.05-9.18-3.66-2.01-4.65-3.5-4.83-4.4-.15-.75.17-1.58,1.04-2.68.79-1,2.43-1.7,4.86-2.08l29.7-4.61,4.91,31.65c.37,2.37,1.31,4.51,2.71,6.19,1.31,1.56,2.62,2.32,4,2.32,2.29,0,4.36-2.01,6.69-6.52,1.15-2.22,2.72-3.39,4.54-3.39,3.37,0,7.5,4.19,8.59,11.19,1.06,6.81.47,12.69-1.49,14.98-.6.7-1.27,1.02-2.12,1.02h0c-1.17,0-2.69-.64-4.39-1.85-2.78-1.99-5.27-2.99-7.39-2.99-2.91,0-5.05,1.82-6.03,5.11-.47,1.56-.56,3.28-.28,5.11l4.73,30.47-31.66,4.91c-.46.07-.92.11-1.36.11-.77,0-1.5-.11-2.17-.33-1.04-.34-2.37-1.04-2.82-2.4-.53-1.63.21-3.93,2.14-6.64,1.98-2.78,2.4-5.61,1.19-7.97-1.67-3.24-6.08-5.1-12.1-5.1-1.62,0-3.34.14-5.11.41-6.68,1.04-11.9,5.22-12.69,10.17-.55,3.44,1.17,6.45,4.72,8.25,2.46,1.25,3.09,3.27,2.85,4.73-.28,1.74-1.69,2.97-3.77,3.29l-30.16,4.68-5.03-32.4Z"/>
      <path class="cls-3" d="m112.63,4.7l4.69,30.24c.41,2.63,1.46,5.01,3.03,6.89.59.7,2.37,2.83,5.1,2.83,3.71,0,6.2-3.9,7.96-7.3.62-1.19,1.69-2.62,3.27-2.62,2.71,0,6.22,3.81,7.17,9.98,1.13,7.29.23,12.2-1.17,13.83-.37.43-.68.52-1.04.52-.5,0-1.62-.21-3.56-1.59-3.07-2.19-5.76-3.26-8.22-3.26-3.54,0-6.24,2.24-7.41,6.14-.53,1.77-.63,3.7-.32,5.74l4.51,29.06-30.24,4.69c-.39.06-.78.09-1.14.09-.62,0-1.2-.09-1.72-.26-.72-.24-1.64-.69-1.9-1.49-.18-.54-.34-2.15,1.95-5.37,3.11-4.37,2.15-7.8,1.3-9.45-1.93-3.74-6.8-5.88-13.37-5.88-1.7,0-3.49.14-5.33.43-7.29,1.13-13,5.8-13.88,11.36-.64,4.03,1.41,7.68,5.48,9.75,1.78.9,2.24,2.26,2.09,3.23-.18,1.11-1.12,1.87-2.58,2.1l-28.75,4.46-4.81-30.99c-.35-2.26-1.39-4.31-2.92-5.76-1.4-1.33-2.96-2.01-4.64-2.01-3.68,0-6.45,3.28-8.21,5.75-1.13,1.58-2.56,2.38-4.26,2.38-3.73,0-8.19-3.89-9.2-10.41-.59-3.81.02-7.1,1.68-9.04.98-1.14,2.26-1.75,3.7-1.75,1.19,0,2.46.41,3.69,1.2,2.65,1.68,4.99,2.5,7.16,2.5,3.7,0,6.55-2.45,7.82-6.73.64-2.15.77-4.48.39-6.93l-4.45-28.67,27.05-4.2c.47-.07.93-.11,1.37-.11.73,0,1.42.1,2.04.3,1.23.39,1.98.96,2.24,1.69.22.62.43,2.49-2.2,6.38-3.52,5.19-2.93,8.78-1.82,10.87,1.94,3.65,6.76,5.58,13.95,5.58,2.25,0,4.65-.19,7.12-.58,8.08-1.25,14.21-6.1,15.26-12.05.75-4.29-1.4-8.28-5.77-10.68-3.74-2.05-4.09-3.29-4.11-3.43-.06-.28.21-.82.76-1.51.25-.32,1.15-1.12,3.96-1.55l28.29-4.39m2.39-3.27l-31.11,4.83c-2.12.33-4.51,1.02-5.76,2.6-1.99,2.51-2.78,5.39,4.22,9.23,8.84,4.85,3.68,15.5-8.55,17.39-2.3.36-4.56.54-6.68.54-9.14,0-15.51-3.5-9.77-11.99,4.79-7.07,2.94-10.97-1.53-12.4-.94-.3-1.93-.44-2.91-.44-.6,0-1.21.05-1.81.14l-29.88,4.63,4.89,31.5c.29,1.9.24,3.85-.31,5.68-.8,2.71-2.38,4.68-5.08,4.68-1.5,0-3.36-.61-5.62-2.05-1.75-1.11-3.54-1.64-5.23-1.64-5.32,0-9.58,5.27-8.22,14.09,1.22,7.87,6.84,12.83,12.03,12.83,2.47,0,4.84-1.12,6.59-3.58,2-2.8,3.96-4.55,5.88-4.55.9,0,1.79.38,2.67,1.22,1.13,1.08,1.82,2.57,2.06,4.13l5.25,33.82,31.58-4.9c6.02-.93,6.85-7.92,1.35-10.71-8.03-4.08-3.31-14.05,7.54-15.73,1.74-.27,3.38-.4,4.89-.4,9.26,0,14.07,4.74,9.74,10.81-4.45,6.24-2.58,9.93,1.39,11.24.85.28,1.73.4,2.62.4.53,0,1.06-.04,1.58-.13l33.07-5.13-4.95-31.89c-.23-1.49-.2-3.03.23-4.48.74-2.47,2.25-4.09,4.66-4.09,1.71,0,3.89.82,6.56,2.73,2.06,1.47,3.79,2.12,5.22,2.12,5.19,0,6.44-8.54,5.03-17.65-1.18-7.63-5.77-12.4-10-12.4-2.21,0-4.32,1.3-5.81,4.17-2.11,4.07-3.83,5.75-5.42,5.75-1,0-1.95-.66-2.91-1.81-1.3-1.55-2.09-3.48-2.4-5.49L115.02,1.43h0Z"/>
      <path class="cls-1" d="m130.88,36.04c-3.43,6.62-5.83,6.92-8.33,3.94-1.3-1.55-2.09-3.48-2.4-5.49L115.02,1.43l-31.11,4.83c-2.12.33-4.51,1.02-5.76,2.6-1.99,2.51-2.78,5.39,4.22,9.23,8.84,4.85,3.68,15.5-8.55,17.39-12.22,1.9-23.52-.99-16.44-11.44,4.79-7.07,2.94-10.97-1.53-12.4-1.52-.49-3.15-.54-4.72-.29l-29.87,4.63,4.89,31.5c.29,1.9.24,3.85-.31,5.68-1.25,4.21-4.36,6.65-10.7,2.63-7.28-4.62-15.25.83-13.44,12.45,1.8,11.62,13.17,16.89,18.62,9.25,2.94-4.12,5.79-5.95,8.55-3.33,1.13,1.08,1.82,2.57,2.06,4.13l5.25,33.82,31.58-4.9c6.02-.93,6.85-7.92,1.35-10.71-8.03-4.08-3.31-14.05,7.54-15.73,12.33-1.91,19.67,3.34,14.64,10.41-4.45,6.24-2.58,9.93,1.39,11.24,1.35.45,2.8.49,4.2.28l33.07-5.13-4.95-31.89c-.23-1.49-.2-3.03.23-4.48,1.26-4.23,4.78-5.96,11.22-1.37,9.51,6.79,12.05-3.91,10.25-15.53-1.8-11.62-11.48-16.6-15.81-8.24Z"/>
    </g>
  </g>
</svg>