<?xml version="1.0" encoding="UTF-8"?>
<svg id="Layer_2" data-name="Layer 2" xmlns="http://www.w3.org/2000/svg" viewBox="0 0 98.8 104.62">
  <defs>
    <style>
      .cls-1 {
        fill: #a21c26;
      }

      .cls-1, .cls-2 {
        stroke-width: 0px;
      }

      .cls-2 {
        fill: #fff;
      }

      .cls-3 {
        fill: none;
        stroke: #3e3e3d;
        stroke-miterlimit: 10;
        stroke-width: 2.86px;
      }
    </style>
  </defs>
  <g id="OBJECTS">
    <g>
      <g>
        <path class="cls-1" d="m7.4,73.62c-2.98-6.62-4.54-13.94-4.54-21.31C2.86,25.05,23.73,2.86,49.38,2.86c17.17,0,32.66,9.82,40.83,25.76-30.98,4.89-57.16,17.73-75.82,37.21-2.15,2.25-4.35,4.7-6.99,7.79Z"/>
        <path class="cls-2" d="m49.38,4.29c16,0,30.48,8.81,38.62,23.24-30.42,5.17-56.17,18.02-74.64,37.3-1.75,1.82-3.52,3.78-5.53,6.1-2.32-5.87-3.53-12.23-3.53-18.63C4.29,25.83,24.52,4.29,49.38,4.29m0-2.86C22.9,1.43,1.43,24.21,1.43,52.31c0,8.65,2.04,16.8,5.63,23.93,2.71-3.22,5.47-6.41,8.36-9.42,20.7-21.61,48.36-32.9,76.93-37.07C84.52,12.97,68.22,1.43,49.38,1.43h0Z"/>
        <path class="cls-3" d="m15.43,66.82c20.7-21.61,48.36-32.9,76.93-37.07C84.52,12.97,68.22,1.43,49.38,1.43,22.9,1.43,1.43,24.21,1.43,52.31c0,8.65,2.04,16.8,5.63,23.93,2.71-3.22,5.47-6.41,8.36-9.42Z"/>
      </g>
      <g>
        <path class="cls-1" d="m33.91,98.95c-8.44-3.16-15.75-8.77-21.27-16.32,1.22-1.4,2.45-2.77,3.66-4.14.74-.84,1.48-1.67,2.22-2.5,6.61-7.49,14.44-14.05,23.26-19.51,14.95-9.25,32.51-15.37,52.21-18.19.74,2.65,1.26,5.34,1.57,8.04-9.32,3.77-18.1,8.63-26.1,14.46-8.25,6.01-15.99,13.1-23.02,21.07-4.49,5.09-7.66,9.21-10.28,13.37-.8,1.26-1.55,2.52-2.25,3.72Z"/>
        <path class="cls-2" d="m92.93,39.89c.46,1.83.82,3.68,1.07,5.53-9.05,3.75-17.58,8.53-25.39,14.21-8.33,6.07-16.15,13.24-23.25,21.28-4.54,5.15-7.75,9.33-10.42,13.55-.58.91-1.13,1.82-1.66,2.71-7.36-2.99-13.8-7.94-18.81-14.47.96-1.1,1.93-2.19,2.88-3.25.75-.84,1.49-1.68,2.23-2.52,6.52-7.38,14.24-13.86,22.94-19.24,14.46-8.95,31.41-14.94,50.4-17.8m2.08-3.19c-18.84,2.55-37.54,8.38-53.99,18.56-8.7,5.38-16.69,11.98-23.58,19.78-2.18,2.47-4.42,4.96-6.63,7.5,5.87,8.42,14.14,14.85,23.73,18.16.92-1.58,1.85-3.16,2.82-4.7,2.99-4.72,6.49-9.04,10.15-13.18,6.87-7.79,14.5-14.82,22.79-20.86,8.38-6.11,17.38-10.98,26.79-14.69-.34-3.65-1.05-7.18-2.08-10.56h0Z"/>
        <path class="cls-3" d="m41.02,55.25c-8.7,5.38-16.69,11.98-23.58,19.78-2.18,2.47-4.42,4.96-6.63,7.5,5.87,8.42,14.14,14.85,23.73,18.16.92-1.58,1.85-3.16,2.82-4.7,2.99-4.72,6.49-9.04,10.15-13.18,6.87-7.79,14.5-14.82,22.79-20.86,8.38-6.11,17.38-10.98,26.79-14.69-.34-3.65-1.05-7.18-2.08-10.56-18.84,2.55-37.54,8.38-53.99,18.56Z"/>
      </g>
      <g>
        <path class="cls-1" d="m49.38,101.76c-1.73,0-3.47-.1-5.2-.31,2.34-3.7,4.91-7.5,7.86-10.95,6.86-8,14.18-14.91,21.76-20.53,6.78-5.03,14.13-9.32,21.87-12.78-2.31,25.17-22.24,44.57-46.29,44.57Z"/>
        <path class="cls-2" d="m93.96,59.56c-3.29,23.21-22.07,40.77-44.58,40.77-.91,0-1.82-.03-2.73-.09,1.96-3.01,4.1-6.03,6.47-8.81,6.79-7.92,14.04-14.76,21.52-20.31,6.02-4.47,12.5-8.34,19.31-11.56m3.31-4.62c-8.55,3.61-16.72,8.24-24.32,13.88-8.06,5.98-15.38,13.04-21.99,20.75-3.47,4.05-6.36,8.48-9.15,12.98,2.47.42,5,.64,7.58.64,25.65,0,46.59-21.37,47.89-48.25h0Z"/>
        <path class="cls-3" d="m72.95,68.82c-8.06,5.98-15.38,13.04-21.99,20.75-3.47,4.05-6.36,8.48-9.15,12.98,2.47.42,5,.64,7.58.64,25.65,0,46.59-21.37,47.89-48.25-8.55,3.61-16.72,8.24-24.32,13.88Z"/>
      </g>
    </g>
  </g>
</svg>